subject05_noload_free_trial03_ground_reaction
version=1
nRows=22
nColumns=19
inDegrees=no
endheader
time	ground_force_r_vx	ground_force_r_vy	ground_force_r_vz	ground_force_r_px	ground_force_r_py	ground_force_r_pz	ground_torque_r_x	ground_torque_r_y	ground_torque_r_z	ground_force_l_vx	ground_force_l_vy	ground_force_l_vz	ground_force_l_px	ground_force_l_py	ground_force_l_pz	ground_torque_l_x	ground_torque_l_y	ground_torque_l_z
0.000000	0.000000	0.000000	0.000000	26.374301	0.000000	16.203719	0.000000	0.000000	0.000000	0.000000	0.000000	0.000000	33609.153074	0.000000	24381.636409	0.000000	0.000000	0.000000
0.000500	0.000000	0.000000	0.000000	26.293274	0.000000	16.145905	0.000000	0.000000	0.000000	0.000000	0.000000	0.000000	33557.874299	0.000000	24344.432952	0.000000	0.000000	0.000000
0.001000	0.000000	0.000000	0.000000	26.212406	0.000000	16.088225	0.000000	0.000000	0.000000	0.000000	0.000000	0.000000	33506.647714	0.000000	24307.267362	0.000000	0.000000	0.000000
0.001500	0.000000	0.000000	0.000000	26.131697	0.000000	16.030681	0.000000	0.000000	0.000000	0.000000	0.000000	0.000000	33455.473293	0.000000	24270.139619	0.000000	0.000000	0.000000
0.002000	0.000000	0.000000	0.000000	26.051146	0.000000	15.973272	0.000000	0.000000	0.000000	0.000000	0.000000	0.000000	33404.351008	0.000000	24233.049704	0.000000	0.000000	0.000000
0.002500	0.000000	0.000000	0.000000	25.970753	0.000000	15.915998	0.000000	0.000000	0.000000	0.000000	0.000000	0.000000	33353.280833	0.000000	24195.997598	0.000000	0.000000	0.000000
0.003000	0.000000	0.000000	0.000000	25.890518	0.000000	15.858859	0.000000	0.000000	0.000000	0.000000	0.000000	0.000000	33302.262742	0.000000	24158.983281	0.000000	0.000000	0.000000
0.003500	0.000000	0.000000	0.000000	25.810441	0.000000	15.801855	0.000000	0.000000	0.000000	0.000000	0.000000	0.000000	33251.296708	0.000000	24122.006734	0.000000	0.000000	0.000000
0.004000	0.000000	0.000000	0.000000	25.730522	0.000000	15.744985	0.000000	0.000000	0.000000	0.000000	0.000000	0.000000	33200.382704	0.000000	24085.067938	0.000000	0.000000	0.000000
0.004500	0.000000	0.000000	0.000000	25.650761	0.000000	15.688249	0.000000	0.000000	0.000000	0.000000	0.000000	0.000000	33149.520704	0.000000	24048.166874	0.000000	0.000000	0.000000
0.005000	0.000000	0.000000	0.000000	25.571157	0.000000	15.631648	0.000000	0.000000	0.000000	0.000000	0.000000	0.000000	33098.710681	0.000000	24011.303521	0.000000	0.000000	0.000000
0.005500	0.000000	0.000000	0.000000	25.491711	0.000000	15.575180	0.000000	0.000000	0.000000	0.000000	0.000000	0.000000	33047.952609	0.000000	23974.477862	0.000000	0.000000	0.000000
0.006000	0.000000	0.000000	0.000000	25.412421	0.000000	15.518847	0.000000	0.000000	0.000000	0.000000	0.000000	0.000000	32997.246462	0.000000	23937.689877	0.000000	0.000000	0.000000
0.006500	0.000000	0.000000	0.000000	25.333289	0.000000	15.462647	0.000000	0.000000	0.000000	0.000000	0.000000	0.000000	32946.592211	0.000000	23900.939546	0.000000	0.000000	0.000000
0.007000	0.000000	0.000000	0.000000	25.254314	0.000000	15.406580	0.000000	0.000000	0.000000	0.000000	0.000000	0.000000	32895.989832	0.000000	23864.226850	0.000000	0.000000	0.000000
0.007500	0.000000	0.000000	0.000000	25.175495	0.000000	15.350647	0.000000	0.000000	0.000000	0.000000	0.000000	0.000000	32845.439298	0.000000	23827.551770	0.000000	0.000000	0.000000
0.008000	0.000000	0.000000	0.000000	25.096834	0.000000	15.294848	0.000000	0.000000	0.000000	0.000000	0.000000	0.000000	32794.940582	0.000000	23790.914286	0.000000	0.000000	0.000000
0.008500	0.000000	0.000000	0.000000	25.018328	0.000000	15.239181	0.000000	0.000000	0.000000	0.000000	0.000000	0.000000	32744.493655	0.000000	23754.314380	0.000000	0.000000	0.000000
0.009000	0.000000	0.000000	0.000000	24.939979	0.000000	15.183647	0.000000	0.000000	0.000000	0.000000	0.000000	0.000000	32694.098494	0.000000	23717.752032	0.000000	0.000000	0.000000
0.009500	0.000000	0.000000	0.000000	24.861787	0.000000	15.128246	0.000000	0.000000	0.000000	0.000000	0.000000	0.000000	32643.755072	0.000000	23681.227222	0.000000	0.000000	0.000000
0.010000	0.000000	0.000000	0.000000	24.783750	0.000000	15.072978	0.000000	0.000000	0.000000	0.000000	0.000000	0.000000	32593.463361	0.000000	23644.739932	0.000000	0.000000	0.000000
0.010500	0.000000	0.000000	0.000000	24.705869	0.000000	15.017842	0.000000	0.000000	0.000000	0.000000	0.000000	0.000000	32543.223335	0.000000	23608.290143	0.000000	0.000000	0.000000
